<?xml version="1.0" standalone="no"?>
<!DOCTYPE svg PUBLIC "-//W3C//DTD SVG 20010904//EN"
 "http://www.w3.org/TR/2001/REC-SVG-20010904/DTD/svg10.dtd">
<svg version="1.0" xmlns="http://www.w3.org/2000/svg"
 width="522.000000pt" height="522.000000pt" viewBox="0 0 522.000000 522.000000"
 preserveAspectRatio="xMidYMid meet">
<metadata>
Created by potrace 1.14, written by Peter Selinger 2001-2017
</metadata>
<g transform="translate(0.000000,522.000000) scale(0.100000,-0.100000)"
fill="#000000" stroke="none">
<path d="M1851 3703 c1 -219 4 -605 8 -858 7 -440 9 -463 30 -525 86 -249 282
-405 553 -440 126 -16 498 -12 581 6 239 53 396 239 409 484 l3 55 -425 5
c-411 5 -426 6 -465 27 -51 27 -90 68 -110 116 -14 34 -16 100 -15 516 0 276
-4 509 -10 552 -22 162 -127 304 -285 386 -85 44 -180 73 -239 73 l-36 0 1
-397z"/>
</g>
</svg>
